M48
; DRILL file {KiCad 7.0.6} date Fri 15 Sep 2023 09:56:39 AM EDT
; FORMAT={-:-/ absolute / inch / decimal}
; #@! TF.CreationDate,2023-09-15T09:56:39-04:00
; #@! TF.GenerationSoftware,Kicad,Pcbnew,7.0.6
; #@! TF.FileFunction,NonPlated,1,2,NPTH
FMAT,2
INCH
; #@! TA.AperFunction,NonPlated,NPTH,ComponentDrill
T1C0.0256
; #@! TA.AperFunction,NonPlated,NPTH,ComponentDrill
T2C0.0689
; #@! TA.AperFunction,NonPlated,NPTH,ComponentDrill
T3C0.1570
%
G90
G05
T1
X3.3547Y-0.9839
X3.5823Y-0.9839
T2
X2.8945Y-1.6949
X2.8945Y-2.6324
X2.9882Y-5.6324
X3.082Y-3.3824
X3.178Y-4.1324
X3.2945Y-1.6949
X3.2945Y-2.6324
X3.3632Y-4.8824
X3.3882Y-5.6324
X3.482Y-3.3824
X3.578Y-4.1324
X3.6445Y-1.6949
X3.6445Y-2.6324
X3.7632Y-4.8824
X3.9257Y-5.6324
X4.0195Y-3.3824
X4.0445Y-1.6949
X4.0445Y-2.6324
X4.207Y-4.1324
X4.3257Y-5.6324
X4.3945Y-1.6949
X4.3945Y-2.6324
X4.4195Y-3.3824
X4.582Y-4.8824
X4.607Y-4.1324
X4.7695Y-3.3824
X4.7945Y-1.6949
X4.7945Y-2.6324
X4.8632Y-5.6324
X4.957Y-4.1324
X4.982Y-4.8824
X5.1445Y-1.6949
X5.1445Y-2.6324
X5.1695Y-3.3824
X5.2632Y-5.6324
X5.332Y-4.8824
X5.357Y-4.1324
X5.5195Y-3.3824
X5.5445Y-1.6949
X5.5445Y-2.6324
X5.707Y-4.1324
X5.732Y-4.8824
X5.8945Y-1.6949
X5.8945Y-2.6324
X5.9195Y-3.3824
X6.082Y-4.8824
X6.107Y-4.1324
X6.2695Y-3.3824
X6.2945Y-1.6949
X6.2945Y-2.6324
X6.457Y-4.1324
X6.482Y-4.8824
X6.6445Y-1.6949
X6.6445Y-2.6324
X6.6695Y-3.3824
X6.832Y-4.8824
X6.857Y-4.1324
X7.0195Y-3.3824
X7.0445Y-1.6949
X7.0445Y-2.6324
X7.207Y-4.1324
X7.232Y-4.8824
X7.3945Y-1.6949
X7.3945Y-2.6324
X7.4195Y-3.3824
X7.582Y-4.8824
X7.607Y-4.1324
X7.6757Y-5.6324
X7.7695Y-3.3824
X7.7945Y-1.6949
X7.7945Y-2.6324
X7.957Y-4.1324
X7.982Y-4.8824
X8.0757Y-5.6324
X8.1445Y-1.6949
X8.1445Y-2.6324
X8.1695Y-3.3824
X8.332Y-4.8824
X8.357Y-4.1324
X8.5195Y-3.3824
X8.5445Y-1.6949
X8.5445Y-2.6324
X8.707Y-4.1324
X8.732Y-4.8824
X8.8945Y-1.6949
X8.8945Y-2.6324
X8.9195Y-3.3824
X9.082Y-4.8824
X9.107Y-4.1324
X9.2695Y-3.3824
X9.2945Y-1.6949
X9.2945Y-2.6324
X9.457Y-4.1324
X9.482Y-4.8824
X9.6445Y-1.6949
X9.6445Y-2.6324
X9.6695Y-3.3824
X9.832Y-4.8824
X9.857Y-4.1324
X10.0195Y-3.3824
X10.0445Y-1.6949
X10.0445Y-2.6324
X10.207Y-4.1324
X10.232Y-4.8824
X10.3945Y-1.6949
X10.3945Y-2.6324
X10.3945Y-5.6324
X10.4195Y-3.3824
X10.582Y-4.8824
X10.607Y-4.1324
X10.7695Y-3.3824
X10.7945Y-1.6949
X10.7945Y-2.6324
X10.7945Y-5.6324
X10.957Y-4.1324
X10.982Y-4.8824
X11.1445Y-1.6949
X11.1445Y-2.6324
X11.1445Y-5.6324
X11.1695Y-3.3824
X11.332Y-4.8824
X11.357Y-4.1324
X11.5195Y-3.3824
X11.5445Y-1.6949
X11.5445Y-2.6324
X11.5445Y-5.6324
X11.707Y-4.1324
X11.732Y-4.8824
X11.8945Y-1.6949
X11.8945Y-2.6324
X11.8945Y-5.6324
X11.9195Y-3.3824
X12.107Y-4.1324
X12.2695Y-3.3824
X12.2945Y-1.6949
X12.2945Y-2.6324
X12.2945Y-5.6324
X12.3632Y-4.8824
X12.6445Y-1.6949
X12.6445Y-5.6324
X12.6695Y-3.3824
X12.7632Y-4.8824
X12.9257Y-4.1324
X13.0195Y-2.6324
X13.0445Y-1.6949
X13.0445Y-5.6324
X13.207Y-3.3824
X13.3257Y-4.1324
X13.3945Y-1.6949
X13.3945Y-4.8824
X13.3945Y-5.6324
X13.4195Y-2.6324
X13.607Y-3.3824
X13.7945Y-1.6949
X13.7945Y-4.8824
X13.7945Y-5.6324
X14.1445Y-2.6324
X14.1445Y-3.3824
X14.1445Y-4.1324
X14.1445Y-4.8824
X14.1445Y-5.6324
X14.5445Y-2.6324
X14.5445Y-3.3824
X14.5445Y-4.1324
X14.5445Y-4.8824
X14.5445Y-5.6324
T3
X3.0945Y-1.6949
X3.0945Y-2.6324
X3.0945Y-4.5574
X3.1882Y-5.6324
X3.282Y-3.3824
X3.378Y-4.1324
X3.5632Y-4.8824
X3.8445Y-1.6949
X3.8445Y-2.6324
X4.032Y-4.5574
X4.1257Y-5.6324
X4.2195Y-3.3824
X4.407Y-4.1324
X4.5945Y-1.6949
X4.5945Y-2.6324
X4.782Y-4.8824
X4.9695Y-3.3824
X5.0632Y-5.6324
X5.157Y-4.1324
X5.3445Y-1.6949
X5.3445Y-2.6324
X5.532Y-4.8824
X5.7195Y-3.3824
X5.907Y-4.1324
X5.907Y-5.3074
X6.0945Y-1.6949
X6.0945Y-2.6324
X6.282Y-4.8824
X6.4695Y-3.3824
X6.657Y-4.1324
X6.8445Y-1.6949
X6.8445Y-2.6324
X7.032Y-4.8824
X7.2195Y-3.3824
X7.407Y-4.1324
X7.5945Y-1.6949
X7.5945Y-2.6324
X7.782Y-4.8824
X7.8757Y-5.6324
X7.9695Y-3.3824
X8.157Y-4.1324
X8.3445Y-1.6949
X8.3445Y-2.6324
X8.532Y-4.8824
X8.7195Y-3.3824
X8.907Y-4.1324
X9.0945Y-1.6949
X9.0945Y-2.6324
X9.282Y-4.8824
X9.4695Y-3.3824
X9.657Y-4.1324
X9.8445Y-1.6949
X9.8445Y-2.6324
X9.8445Y-5.3074
X10.032Y-4.8824
X10.2195Y-3.3824
X10.407Y-4.1324
X10.5945Y-1.6949
X10.5945Y-2.6324
X10.5945Y-5.6324
X10.782Y-4.8824
X10.9695Y-3.3824
X11.157Y-4.1324
X11.3445Y-1.6949
X11.3445Y-2.6324
X11.3445Y-5.6324
X11.532Y-4.8824
X11.7195Y-3.3824
X11.907Y-4.1324
X12.0945Y-1.6949
X12.0945Y-2.6324
X12.0945Y-5.6324
X12.4695Y-3.3824
X12.5632Y-4.8824
X12.657Y-3.8074
X12.7507Y-2.3074
X12.8445Y-1.6949
X12.8445Y-5.6324
X13.1257Y-4.1324
X13.2195Y-2.6324
X13.407Y-3.3824
X13.5945Y-1.6949
X13.5945Y-3.8074
X13.5945Y-4.8824
X13.5945Y-5.6324
X13.6882Y-2.3074
X14.3445Y-1.6949
X14.3445Y-2.6324
X14.3445Y-3.3824
X14.3445Y-4.1324
X14.3445Y-4.8824
X14.3445Y-5.6324
T0
M30
