%TF.GenerationSoftware,KiCad,Pcbnew,7.0.6*%
%TF.CreationDate,2023-09-12T22:19:02-04:00*%
%TF.ProjectId,ze-keyboard,7a652d6b-6579-4626-9f61-72642e6b6963,rev?*%
%TF.SameCoordinates,Original*%
%TF.FileFunction,Paste,Bot*%
%TF.FilePolarity,Positive*%
%FSLAX46Y46*%
G04 Gerber Fmt 4.6, Leading zero omitted, Abs format (unit mm)*
G04 Created by KiCad (PCBNEW 7.0.6) date 2023-09-12 22:19:02*
%MOMM*%
%LPD*%
G01*
G04 APERTURE LIST*
G04 Aperture macros list*
%AMRoundRect*
0 Rectangle with rounded corners*
0 $1 Rounding radius*
0 $2 $3 $4 $5 $6 $7 $8 $9 X,Y pos of 4 corners*
0 Add a 4 corners polygon primitive as box body*
4,1,4,$2,$3,$4,$5,$6,$7,$8,$9,$2,$3,0*
0 Add four circle primitives for the rounded corners*
1,1,$1+$1,$2,$3*
1,1,$1+$1,$4,$5*
1,1,$1+$1,$6,$7*
1,1,$1+$1,$8,$9*
0 Add four rect primitives between the rounded corners*
20,1,$1+$1,$2,$3,$4,$5,0*
20,1,$1+$1,$4,$5,$6,$7,0*
20,1,$1+$1,$6,$7,$8,$9,0*
20,1,$1+$1,$8,$9,$2,$3,0*%
%AMRotRect*
0 Rectangle, with rotation*
0 The origin of the aperture is its center*
0 $1 length*
0 $2 width*
0 $3 Rotation angle, in degrees counterclockwise*
0 Add horizontal line*
21,1,$1,$2,0,0,$3*%
G04 Aperture macros list end*
%ADD10RoundRect,0.225000X-0.375000X0.225000X-0.375000X-0.225000X0.375000X-0.225000X0.375000X0.225000X0*%
%ADD11RoundRect,0.140000X0.140000X0.170000X-0.140000X0.170000X-0.140000X-0.170000X0.140000X-0.170000X0*%
%ADD12RoundRect,0.225000X0.225000X0.375000X-0.225000X0.375000X-0.225000X-0.375000X0.225000X-0.375000X0*%
%ADD13RoundRect,0.250000X1.025000X1.000000X-1.025000X1.000000X-1.025000X-1.000000X1.025000X-1.000000X0*%
%ADD14RoundRect,0.140000X-0.170000X0.140000X-0.170000X-0.140000X0.170000X-0.140000X0.170000X0.140000X0*%
%ADD15RoundRect,0.225000X0.375000X-0.225000X0.375000X0.225000X-0.375000X0.225000X-0.375000X-0.225000X0*%
%ADD16R,1.700000X1.000000*%
%ADD17RoundRect,0.225000X-0.225000X-0.375000X0.225000X-0.375000X0.225000X0.375000X-0.225000X0.375000X0*%
%ADD18RoundRect,0.140000X-0.140000X-0.170000X0.140000X-0.170000X0.140000X0.170000X-0.140000X0.170000X0*%
%ADD19RoundRect,0.135000X-0.185000X0.135000X-0.185000X-0.135000X0.185000X-0.135000X0.185000X0.135000X0*%
%ADD20RoundRect,0.135000X-0.135000X-0.185000X0.135000X-0.185000X0.135000X0.185000X-0.135000X0.185000X0*%
%ADD21RoundRect,0.135000X0.135000X0.185000X-0.135000X0.185000X-0.135000X-0.185000X0.135000X-0.185000X0*%
%ADD22RoundRect,0.250000X-0.625000X0.375000X-0.625000X-0.375000X0.625000X-0.375000X0.625000X0.375000X0*%
%ADD23RoundRect,0.135000X0.035355X-0.226274X0.226274X-0.035355X-0.035355X0.226274X-0.226274X0.035355X0*%
%ADD24RoundRect,0.140000X-0.219203X-0.021213X-0.021213X-0.219203X0.219203X0.021213X0.021213X0.219203X0*%
%ADD25R,0.600000X1.450000*%
%ADD26R,0.300000X1.450000*%
%ADD27RotRect,1.400000X1.200000X45.000000*%
%ADD28RoundRect,0.135000X0.185000X-0.135000X0.185000X0.135000X-0.185000X0.135000X-0.185000X-0.135000X0*%
%ADD29RoundRect,0.225000X0.225000X0.250000X-0.225000X0.250000X-0.225000X-0.250000X0.225000X-0.250000X0*%
%ADD30RoundRect,0.140000X0.170000X-0.140000X0.170000X0.140000X-0.170000X0.140000X-0.170000X-0.140000X0*%
%ADD31RoundRect,0.150000X0.650000X0.150000X-0.650000X0.150000X-0.650000X-0.150000X0.650000X-0.150000X0*%
%ADD32RoundRect,0.150000X-0.512500X-0.150000X0.512500X-0.150000X0.512500X0.150000X-0.512500X0.150000X0*%
%ADD33RoundRect,0.150000X0.475000X0.150000X-0.475000X0.150000X-0.475000X-0.150000X0.475000X-0.150000X0*%
%ADD34RoundRect,0.140000X0.219203X0.021213X0.021213X0.219203X-0.219203X-0.021213X-0.021213X-0.219203X0*%
%ADD35RoundRect,0.249999X0.395001X0.395001X-0.395001X0.395001X-0.395001X-0.395001X0.395001X-0.395001X0*%
%ADD36RoundRect,0.050000X0.387500X0.050000X-0.387500X0.050000X-0.387500X-0.050000X0.387500X-0.050000X0*%
%ADD37RoundRect,0.050000X0.050000X0.387500X-0.050000X0.387500X-0.050000X-0.387500X0.050000X-0.387500X0*%
G04 APERTURE END LIST*
D10*
%TO.C,D16*%
X356100000Y-34850000D03*
X356100000Y-38150000D03*
%TD*%
D11*
%TO.C,C5*%
X167925000Y-139325000D03*
X168885000Y-139325000D03*
%TD*%
D12*
%TO.C,D65*%
X184450000Y-126800000D03*
X181150000Y-126800000D03*
%TD*%
D13*
%TO.C,MX42*%
X271265000Y-83372500D03*
X284715000Y-80832500D03*
%TD*%
D14*
%TO.C,C2*%
X173125000Y-145620000D03*
X173125000Y-146580000D03*
%TD*%
D15*
%TO.C,D57*%
X275200000Y-108000000D03*
X275200000Y-104700000D03*
%TD*%
%TO.C,D33*%
X98700000Y-89300000D03*
X98700000Y-86000000D03*
%TD*%
D13*
%TO.C,MX20*%
X128390000Y-64322500D03*
X141840000Y-61782500D03*
%TD*%
%TO.C,MX51*%
X161727500Y-102422500D03*
X175177500Y-99882500D03*
%TD*%
D16*
%TO.C,SW1*%
X201350000Y-130700000D03*
X195050000Y-130700000D03*
X201350000Y-134500000D03*
X195050000Y-134500000D03*
%TD*%
D15*
%TO.C,D84*%
X356400000Y-146650000D03*
X356400000Y-143350000D03*
%TD*%
D13*
%TO.C,MX37*%
X176015000Y-83372500D03*
X189465000Y-80832500D03*
%TD*%
D15*
%TO.C,D42*%
X270450000Y-89500000D03*
X270450000Y-86200000D03*
%TD*%
%TO.C,D73*%
X337000000Y-127250000D03*
X337000000Y-123950000D03*
%TD*%
D13*
%TO.C,MX14*%
X318890000Y-40510000D03*
X332340000Y-37970000D03*
%TD*%
D17*
%TO.C,D78*%
X189550000Y-137600000D03*
X192850000Y-137600000D03*
%TD*%
D13*
%TO.C,MX44*%
X309365000Y-83372500D03*
X322815000Y-80832500D03*
%TD*%
D15*
%TO.C,D56*%
X255800000Y-108250000D03*
X255800000Y-104950000D03*
%TD*%
D13*
%TO.C,MX35*%
X137915000Y-83372500D03*
X151365000Y-80832500D03*
%TD*%
%TO.C,MX80*%
X280790000Y-140522500D03*
X294240000Y-137982500D03*
%TD*%
D18*
%TO.C,C13*%
X175460000Y-128690000D03*
X176420000Y-128690000D03*
%TD*%
D15*
%TO.C,D25*%
X222850000Y-70070000D03*
X222850000Y-66770000D03*
%TD*%
D19*
%TO.C,R11*%
X361800000Y-52890000D03*
X361800000Y-53910000D03*
%TD*%
D15*
%TO.C,D24*%
X203840000Y-70000000D03*
X203840000Y-66700000D03*
%TD*%
D13*
%TO.C,MX71*%
X285552500Y-121472500D03*
X299002500Y-118932500D03*
%TD*%
%TO.C,MX41*%
X252215000Y-83372500D03*
X265665000Y-80832500D03*
%TD*%
D15*
%TO.C,D26*%
X241830000Y-70217500D03*
X241830000Y-66917500D03*
%TD*%
%TO.C,D11*%
X260850000Y-46250000D03*
X260850000Y-42950000D03*
%TD*%
%TO.C,D2*%
X94150000Y-48700000D03*
X94150000Y-45400000D03*
%TD*%
D13*
%TO.C,MX57*%
X276027500Y-102422500D03*
X289477500Y-99882500D03*
%TD*%
D20*
%TO.C,R5*%
X203115000Y-132950000D03*
X204135000Y-132950000D03*
%TD*%
D21*
%TO.C,R3*%
X204135000Y-131750000D03*
X203115000Y-131750000D03*
%TD*%
D15*
%TO.C,D48*%
X103600000Y-108850000D03*
X103600000Y-105550000D03*
%TD*%
D13*
%TO.C,MX76*%
X97433750Y-140522500D03*
X110883750Y-137982500D03*
%TD*%
%TO.C,MX27*%
X261740000Y-64322500D03*
X275190000Y-61782500D03*
%TD*%
%TO.C,MX81*%
X299840000Y-140522500D03*
X313290000Y-137982500D03*
%TD*%
%TO.C,MX66*%
X190302500Y-121472500D03*
X203752500Y-118932500D03*
%TD*%
%TO.C,MX4*%
X128390000Y-40510000D03*
X141840000Y-37970000D03*
%TD*%
%TO.C,MX64*%
X152202500Y-121472500D03*
X165652500Y-118932500D03*
%TD*%
D15*
%TO.C,D66*%
X189400000Y-127450000D03*
X189400000Y-124150000D03*
%TD*%
%TO.C,D34*%
X118100000Y-89450000D03*
X118100000Y-86150000D03*
%TD*%
D13*
%TO.C,MX45*%
X333177500Y-83372500D03*
X346627500Y-80832500D03*
%TD*%
D16*
%TO.C,SW2*%
X161824000Y-141138000D03*
X155524000Y-141138000D03*
X161824000Y-144938000D03*
X155524000Y-144938000D03*
%TD*%
D22*
%TO.C,F1*%
X83125000Y-29800000D03*
X83125000Y-32600000D03*
%TD*%
D15*
%TO.C,D8*%
X203700000Y-46300000D03*
X203700000Y-43000000D03*
%TD*%
D23*
%TO.C,R8*%
X175939376Y-146785624D03*
X176660624Y-146064376D03*
%TD*%
D15*
%TO.C,D58*%
X294200000Y-108250000D03*
X294200000Y-104950000D03*
%TD*%
%TO.C,D7*%
X184700000Y-46350000D03*
X184700000Y-43050000D03*
%TD*%
%TO.C,D4*%
X127600000Y-46400000D03*
X127600000Y-43100000D03*
%TD*%
D13*
%TO.C,MX77*%
X121246250Y-140522500D03*
X134696250Y-137982500D03*
%TD*%
D20*
%TO.C,R6*%
X203115000Y-134550000D03*
X204135000Y-134550000D03*
%TD*%
D21*
%TO.C,R9*%
X90585000Y-28850000D03*
X89565000Y-28850000D03*
%TD*%
D24*
%TO.C,C12*%
X179796246Y-145564933D03*
X180475068Y-146243755D03*
%TD*%
D13*
%TO.C,MX22*%
X166490000Y-64322500D03*
X179940000Y-61782500D03*
%TD*%
D15*
%TO.C,D50*%
X144400000Y-110650000D03*
X144400000Y-107350000D03*
%TD*%
D13*
%TO.C,MX46*%
X356990000Y-83372500D03*
X370440000Y-80832500D03*
%TD*%
D15*
%TO.C,D10*%
X241850000Y-46400000D03*
X241850000Y-43100000D03*
%TD*%
%TO.C,D63*%
X132400000Y-127250000D03*
X132400000Y-123950000D03*
%TD*%
%TO.C,D61*%
X87400000Y-129850000D03*
X87400000Y-126550000D03*
%TD*%
%TO.C,D23*%
X184770000Y-69920000D03*
X184770000Y-66620000D03*
%TD*%
D13*
%TO.C,MX84*%
X356990000Y-140522500D03*
X370440000Y-137982500D03*
%TD*%
%TO.C,MX23*%
X185540000Y-64322500D03*
X198990000Y-61782500D03*
%TD*%
%TO.C,MX79*%
X261740000Y-140522500D03*
X275190000Y-137982500D03*
%TD*%
D19*
%TO.C,R12*%
X365506000Y-52830000D03*
X365506000Y-53850000D03*
%TD*%
D13*
%TO.C,MX70*%
X266502500Y-121472500D03*
X279952500Y-118932500D03*
%TD*%
D15*
%TO.C,D27*%
X260900000Y-70150000D03*
X260900000Y-66850000D03*
%TD*%
D13*
%TO.C,MX17*%
X71240000Y-64322500D03*
X84690000Y-61782500D03*
%TD*%
%TO.C,MX21*%
X147440000Y-64322500D03*
X160890000Y-61782500D03*
%TD*%
D18*
%TO.C,C7*%
X179200000Y-134530000D03*
X180160000Y-134530000D03*
%TD*%
D13*
%TO.C,MX54*%
X218877500Y-102422500D03*
X232327500Y-99882500D03*
%TD*%
D25*
%TO.C,J2*%
X84850000Y-26435000D03*
X85650000Y-26435000D03*
D26*
X86850000Y-26435000D03*
X87850000Y-26435000D03*
X88350000Y-26435000D03*
X89350000Y-26435000D03*
D25*
X90550000Y-26435000D03*
X91350000Y-26435000D03*
X91350000Y-26435000D03*
X90550000Y-26435000D03*
D26*
X89850000Y-26435000D03*
X88850000Y-26435000D03*
X87350000Y-26435000D03*
X86350000Y-26435000D03*
D25*
X85650000Y-26435000D03*
X84850000Y-26435000D03*
%TD*%
D27*
%TO.C,Y1*%
X176781142Y-148056777D03*
X178336777Y-146501142D03*
X179538858Y-147703223D03*
X177983223Y-149258858D03*
%TD*%
D13*
%TO.C,MX39*%
X214115000Y-83372500D03*
X227565000Y-80832500D03*
%TD*%
%TO.C,MX6*%
X166490000Y-40510000D03*
X179940000Y-37970000D03*
%TD*%
%TO.C,MX47*%
X78440000Y-102422500D03*
X91890000Y-99882500D03*
%TD*%
D15*
%TO.C,D37*%
X175500000Y-89350000D03*
X175500000Y-86050000D03*
%TD*%
D28*
%TO.C,R4*%
X163525000Y-146510000D03*
X163525000Y-145490000D03*
%TD*%
D13*
%TO.C,MX68*%
X228402500Y-121472500D03*
X241852500Y-118932500D03*
%TD*%
%TO.C,MX83*%
X337940000Y-140522500D03*
X351390000Y-137982500D03*
%TD*%
D15*
%TO.C,D14*%
X317950000Y-46900000D03*
X317950000Y-43600000D03*
%TD*%
D13*
%TO.C,MX5*%
X147440000Y-40510000D03*
X160890000Y-37970000D03*
%TD*%
%TO.C,MX19*%
X109340000Y-64322500D03*
X122790000Y-61782500D03*
%TD*%
D15*
%TO.C,D19*%
X108870000Y-69920000D03*
X108870000Y-66620000D03*
%TD*%
D13*
%TO.C,MX82*%
X318890000Y-140522500D03*
X332340000Y-137982500D03*
%TD*%
D15*
%TO.C,D72*%
X310800000Y-127250000D03*
X310800000Y-123950000D03*
%TD*%
D29*
%TO.C,C3*%
X167565000Y-132010000D03*
X166015000Y-132010000D03*
%TD*%
D15*
%TO.C,D81*%
X299200000Y-146450000D03*
X299200000Y-143150000D03*
%TD*%
D13*
%TO.C,MX12*%
X280790000Y-40510000D03*
X294240000Y-37970000D03*
%TD*%
%TO.C,MX8*%
X204590000Y-40510000D03*
X218040000Y-37970000D03*
%TD*%
%TO.C,MX50*%
X142677500Y-102422500D03*
X156127500Y-99882500D03*
%TD*%
D15*
%TO.C,D38*%
X194600000Y-89650000D03*
X194600000Y-86350000D03*
%TD*%
%TO.C,D39*%
X213200000Y-89550000D03*
X213200000Y-86250000D03*
%TD*%
%TO.C,D28*%
X280050000Y-70550000D03*
X280050000Y-67250000D03*
%TD*%
D13*
%TO.C,MX52*%
X180777500Y-102422500D03*
X194227500Y-99882500D03*
%TD*%
%TO.C,MX34*%
X118865000Y-83372500D03*
X132315000Y-80832500D03*
%TD*%
D15*
%TO.C,D77*%
X120400000Y-146450000D03*
X120400000Y-143150000D03*
%TD*%
D13*
%TO.C,MX62*%
X114102500Y-121472500D03*
X127552500Y-118932500D03*
%TD*%
D15*
%TO.C,D52*%
X180000000Y-108050000D03*
X180000000Y-104750000D03*
%TD*%
%TO.C,D36*%
X156100000Y-89450000D03*
X156100000Y-86150000D03*
%TD*%
D13*
%TO.C,MX53*%
X199827500Y-102422500D03*
X213277500Y-99882500D03*
%TD*%
D15*
%TO.C,D59*%
X329200000Y-110600000D03*
X329200000Y-107300000D03*
%TD*%
D13*
%TO.C,MX69*%
X247452500Y-121472500D03*
X260902500Y-118932500D03*
%TD*%
%TO.C,MX49*%
X123627500Y-102422500D03*
X137077500Y-99882500D03*
%TD*%
D15*
%TO.C,D75*%
X73000000Y-146450000D03*
X73000000Y-143150000D03*
%TD*%
D13*
%TO.C,MX1*%
X71240000Y-40510000D03*
X84690000Y-37970000D03*
%TD*%
D15*
%TO.C,D53*%
X199000000Y-108450000D03*
X199000000Y-105150000D03*
%TD*%
%TO.C,D18*%
X89590000Y-70027500D03*
X89590000Y-66727500D03*
%TD*%
%TO.C,D55*%
X237200000Y-108050000D03*
X237200000Y-104750000D03*
%TD*%
%TO.C,D79*%
X261000000Y-146250000D03*
X261000000Y-142950000D03*
%TD*%
D13*
%TO.C,MX74*%
X356990000Y-121472500D03*
X370440000Y-118932500D03*
%TD*%
%TO.C,MX72*%
X311746250Y-121472500D03*
X325196250Y-118932500D03*
%TD*%
D15*
%TO.C,D1*%
X74050000Y-48750000D03*
X74050000Y-45450000D03*
%TD*%
%TO.C,D9*%
X222950000Y-46300000D03*
X222950000Y-43000000D03*
%TD*%
%TO.C,D44*%
X308600000Y-89350000D03*
X308600000Y-86050000D03*
%TD*%
%TO.C,D80*%
X280000000Y-146450000D03*
X280000000Y-143150000D03*
%TD*%
%TO.C,D51*%
X160600000Y-108250000D03*
X160600000Y-104950000D03*
%TD*%
D13*
%TO.C,MX15*%
X337940000Y-40510000D03*
X351390000Y-37970000D03*
%TD*%
%TO.C,MX67*%
X209352500Y-121472500D03*
X222802500Y-118932500D03*
%TD*%
D15*
%TO.C,D85*%
X355900000Y-48150000D03*
X355900000Y-44850000D03*
%TD*%
D13*
%TO.C,MX63*%
X133152500Y-121472500D03*
X146602500Y-118932500D03*
%TD*%
%TO.C,MX30*%
X328415000Y-64322500D03*
X341865000Y-61782500D03*
%TD*%
D15*
%TO.C,D20*%
X132460000Y-72150000D03*
X132460000Y-68850000D03*
%TD*%
%TO.C,D64*%
X150510000Y-127170000D03*
X150510000Y-123870000D03*
%TD*%
%TO.C,D35*%
X140400000Y-91450000D03*
X140400000Y-88150000D03*
%TD*%
D13*
%TO.C,MX31*%
X356990000Y-64322500D03*
X370440000Y-61782500D03*
%TD*%
%TO.C,MX43*%
X290315000Y-83372500D03*
X303765000Y-80832500D03*
%TD*%
D14*
%TO.C,C15*%
X174205000Y-144870000D03*
X174205000Y-145830000D03*
%TD*%
D15*
%TO.C,D3*%
X108350000Y-46400000D03*
X108350000Y-43100000D03*
%TD*%
%TO.C,D43*%
X289550000Y-89500000D03*
X289550000Y-86200000D03*
%TD*%
D30*
%TO.C,C16*%
X174150000Y-127620000D03*
X174150000Y-128580000D03*
%TD*%
D13*
%TO.C,MX36*%
X156965000Y-83372500D03*
X170415000Y-80832500D03*
%TD*%
D11*
%TO.C,C4*%
X169310000Y-134625000D03*
X168350000Y-134625000D03*
%TD*%
D28*
%TO.C,R2*%
X169327000Y-128753000D03*
X169327000Y-127733000D03*
%TD*%
D31*
%TO.C,U3*%
X191130000Y-129755000D03*
X191130000Y-131025000D03*
X191130000Y-132295000D03*
X191130000Y-133565000D03*
X183930000Y-133565000D03*
X183930000Y-132295000D03*
X183930000Y-131025000D03*
X183930000Y-129755000D03*
%TD*%
D15*
%TO.C,D21*%
X146690000Y-70237500D03*
X146690000Y-66937500D03*
%TD*%
D13*
%TO.C,MX38*%
X195065000Y-83372500D03*
X208515000Y-80832500D03*
%TD*%
%TO.C,MX11*%
X261740000Y-40510000D03*
X275190000Y-37970000D03*
%TD*%
%TO.C,MX75*%
X73621250Y-140522500D03*
X87071250Y-137982500D03*
%TD*%
%TO.C,MX78*%
X192683750Y-140522500D03*
X206133750Y-137982500D03*
%TD*%
D15*
%TO.C,D47*%
X77600000Y-108450000D03*
X77600000Y-105150000D03*
%TD*%
D13*
%TO.C,MX2*%
X90290000Y-40510000D03*
X103740000Y-37970000D03*
%TD*%
%TO.C,MX24*%
X204590000Y-64322500D03*
X218040000Y-61782500D03*
%TD*%
D15*
%TO.C,D22*%
X165770000Y-70050000D03*
X165770000Y-66750000D03*
%TD*%
%TO.C,D30*%
X332600000Y-72400000D03*
X332600000Y-69100000D03*
%TD*%
D13*
%TO.C,MX33*%
X99815000Y-83372500D03*
X113265000Y-80832500D03*
%TD*%
D15*
%TO.C,D40*%
X232150000Y-89350000D03*
X232150000Y-86050000D03*
%TD*%
D32*
%TO.C,U1*%
X75842500Y-31300000D03*
X75842500Y-29400000D03*
X78117500Y-30350000D03*
%TD*%
D13*
%TO.C,MX16*%
X356990000Y-40510000D03*
X370440000Y-37970000D03*
%TD*%
D15*
%TO.C,D70*%
X265600000Y-127250000D03*
X265600000Y-123950000D03*
%TD*%
D13*
%TO.C,MX3*%
X109340000Y-40510000D03*
X122790000Y-37970000D03*
%TD*%
%TO.C,MX58*%
X295077500Y-102422500D03*
X308527500Y-99882500D03*
%TD*%
D15*
%TO.C,D60*%
X356000000Y-108450000D03*
X356000000Y-105150000D03*
%TD*%
D33*
%TO.C,U4*%
X89307500Y-30550000D03*
X89307500Y-31500000D03*
X89307500Y-32450000D03*
X86957500Y-32450000D03*
X86957500Y-31500000D03*
X86957500Y-30550000D03*
%TD*%
D15*
%TO.C,D46*%
X356250000Y-89450000D03*
X356250000Y-86150000D03*
%TD*%
D14*
%TO.C,C8*%
X79880000Y-29220000D03*
X79880000Y-30180000D03*
%TD*%
D13*
%TO.C,MX56*%
X256977500Y-102422500D03*
X270427500Y-99882500D03*
%TD*%
D15*
%TO.C,D82*%
X318200000Y-146250000D03*
X318200000Y-142950000D03*
%TD*%
D30*
%TO.C,C14*%
X171080000Y-132430000D03*
X171080000Y-131470000D03*
%TD*%
D13*
%TO.C,MX48*%
X104577500Y-102422500D03*
X118027500Y-99882500D03*
%TD*%
D15*
%TO.C,D31*%
X356000000Y-70250000D03*
X356000000Y-66950000D03*
%TD*%
%TO.C,D12*%
X279850000Y-46400000D03*
X279850000Y-43100000D03*
%TD*%
%TO.C,D41*%
X251350000Y-89300000D03*
X251350000Y-86000000D03*
%TD*%
D13*
%TO.C,MX10*%
X242690000Y-40510000D03*
X256140000Y-37970000D03*
%TD*%
%TO.C,MX25*%
X223640000Y-64322500D03*
X237090000Y-61782500D03*
%TD*%
%TO.C,MX18*%
X90290000Y-64322500D03*
X103740000Y-61782500D03*
%TD*%
D34*
%TO.C,C10*%
X176439411Y-150139411D03*
X175760589Y-149460589D03*
%TD*%
D15*
%TO.C,D13*%
X299000000Y-46600000D03*
X299000000Y-43300000D03*
%TD*%
D13*
%TO.C,MX13*%
X299840000Y-40510000D03*
X313290000Y-37970000D03*
%TD*%
D30*
%TO.C,C9*%
X74230000Y-30155000D03*
X74230000Y-29195000D03*
%TD*%
D15*
%TO.C,D15*%
X337100000Y-46850000D03*
X337100000Y-43550000D03*
%TD*%
D13*
%TO.C,MX7*%
X185540000Y-40510000D03*
X198990000Y-37970000D03*
%TD*%
%TO.C,MX40*%
X233165000Y-83372500D03*
X246615000Y-80832500D03*
%TD*%
D15*
%TO.C,D49*%
X122800000Y-108900000D03*
X122800000Y-105600000D03*
%TD*%
D13*
%TO.C,MX26*%
X242690000Y-64322500D03*
X256140000Y-61782500D03*
%TD*%
D15*
%TO.C,D71*%
X284600000Y-127250000D03*
X284600000Y-123950000D03*
%TD*%
D11*
%TO.C,C11*%
X182180000Y-130160000D03*
X181220000Y-130160000D03*
%TD*%
D35*
%TO.C,U2*%
X175127000Y-139093000D03*
X175127000Y-137493000D03*
X173527000Y-139093000D03*
X173527000Y-137493000D03*
D36*
X177764500Y-135693000D03*
X177764500Y-136093000D03*
X177764500Y-136493000D03*
X177764500Y-136893000D03*
X177764500Y-137293000D03*
X177764500Y-137693000D03*
X177764500Y-138093000D03*
X177764500Y-138493000D03*
X177764500Y-138893000D03*
X177764500Y-139293000D03*
X177764500Y-139693000D03*
X177764500Y-140093000D03*
X177764500Y-140493000D03*
X177764500Y-140893000D03*
D37*
X176927000Y-141730500D03*
X176527000Y-141730500D03*
X176127000Y-141730500D03*
X175727000Y-141730500D03*
X175327000Y-141730500D03*
X174927000Y-141730500D03*
X174527000Y-141730500D03*
X174127000Y-141730500D03*
X173727000Y-141730500D03*
X173327000Y-141730500D03*
X172927000Y-141730500D03*
X172527000Y-141730500D03*
X172127000Y-141730500D03*
X171727000Y-141730500D03*
D36*
X170889500Y-140893000D03*
X170889500Y-140493000D03*
X170889500Y-140093000D03*
X170889500Y-139693000D03*
X170889500Y-139293000D03*
X170889500Y-138893000D03*
X170889500Y-138493000D03*
X170889500Y-138093000D03*
X170889500Y-137693000D03*
X170889500Y-137293000D03*
X170889500Y-136893000D03*
X170889500Y-136493000D03*
X170889500Y-136093000D03*
X170889500Y-135693000D03*
D37*
X171727000Y-134855500D03*
X172127000Y-134855500D03*
X172527000Y-134855500D03*
X172927000Y-134855500D03*
X173327000Y-134855500D03*
X173727000Y-134855500D03*
X174127000Y-134855500D03*
X174527000Y-134855500D03*
X174927000Y-134855500D03*
X175327000Y-134855500D03*
X175727000Y-134855500D03*
X176127000Y-134855500D03*
X176527000Y-134855500D03*
X176927000Y-134855500D03*
%TD*%
D18*
%TO.C,C6*%
X181550000Y-139300000D03*
X180590000Y-139300000D03*
%TD*%
D15*
%TO.C,D62*%
X113200000Y-127450000D03*
X113200000Y-124150000D03*
%TD*%
%TO.C,D32*%
X75300000Y-89250000D03*
X75300000Y-85950000D03*
%TD*%
D30*
%TO.C,C1*%
X172255000Y-132430000D03*
X172255000Y-131470000D03*
%TD*%
D13*
%TO.C,MX32*%
X76002500Y-83372500D03*
X89452500Y-80832500D03*
%TD*%
D28*
%TO.C,R1*%
X170352000Y-128728000D03*
X170352000Y-127708000D03*
%TD*%
D13*
%TO.C,MX29*%
X299840000Y-64322500D03*
X313290000Y-61782500D03*
%TD*%
D15*
%TO.C,D6*%
X165500000Y-46400000D03*
X165500000Y-43100000D03*
%TD*%
D13*
%TO.C,MX9*%
X223640000Y-40510000D03*
X237090000Y-37970000D03*
%TD*%
D21*
%TO.C,R7*%
X86810000Y-28775000D03*
X85790000Y-28775000D03*
%TD*%
D13*
%TO.C,MX61*%
X83146250Y-121472500D03*
X96596250Y-118932500D03*
%TD*%
%TO.C,MX73*%
X337940000Y-121472500D03*
X351390000Y-118932500D03*
%TD*%
D15*
%TO.C,D5*%
X146550000Y-46400000D03*
X146550000Y-43100000D03*
%TD*%
D13*
%TO.C,MX65*%
X171252500Y-121472500D03*
X184702500Y-118932500D03*
%TD*%
D15*
%TO.C,D68*%
X227600000Y-127250000D03*
X227600000Y-123950000D03*
%TD*%
D13*
%TO.C,MX60*%
X356990000Y-102422500D03*
X370440000Y-99882500D03*
%TD*%
D15*
%TO.C,D74*%
X356200000Y-127250000D03*
X356200000Y-123950000D03*
%TD*%
%TO.C,D54*%
X217800000Y-108300000D03*
X217800000Y-105000000D03*
%TD*%
D13*
%TO.C,MX55*%
X237927500Y-102422500D03*
X251377500Y-99882500D03*
%TD*%
%TO.C,MX59*%
X326033750Y-102422500D03*
X339483750Y-99882500D03*
%TD*%
D15*
%TO.C,D67*%
X208400000Y-127250000D03*
X208400000Y-123950000D03*
%TD*%
%TO.C,D29*%
X298950000Y-71050000D03*
X298950000Y-67750000D03*
%TD*%
%TO.C,D83*%
X337200000Y-146250000D03*
X337200000Y-142950000D03*
%TD*%
%TO.C,D45*%
X332400000Y-89550000D03*
X332400000Y-86250000D03*
%TD*%
D13*
%TO.C,MX28*%
X280790000Y-64322500D03*
X294240000Y-61782500D03*
%TD*%
D15*
%TO.C,D76*%
X96600000Y-146450000D03*
X96600000Y-143150000D03*
%TD*%
%TO.C,D69*%
X246600000Y-127250000D03*
X246600000Y-123950000D03*
%TD*%
%TO.C,D17*%
X75250000Y-72350000D03*
X75250000Y-69050000D03*
%TD*%
M02*
