M48
; DRILL file {KiCad 7.0.7-2.fc38} date Thu Sep 14 11:04:57 2023
; FORMAT={-:-/ absolute / inch / decimal}
; #@! TF.CreationDate,2023-09-14T11:04:57-04:00
; #@! TF.GenerationSoftware,Kicad,Pcbnew,7.0.7-2.fc38
; #@! TF.FileFunction,Plated,1,2,PTH
FMAT,2
INCH
; #@! TA.AperFunction,Plated,PTH,ViaDrill
T1C0.0157
; #@! TA.AperFunction,Plated,PTH,ComponentDrill
T2C0.0236
; #@! TA.AperFunction,Plated,PTH,ComponentDrill
T3C0.0394
; #@! TA.AperFunction,Plated,PTH,ComponentDrill
T4C0.0689
; #@! TA.AperFunction,Plated,PTH,ComponentDrill
T5C0.1181
; #@! TA.AperFunction,Plated,PTH,ComponentDrill
T6C0.1200
%
G90
G05
T1
X2.872Y-1.1768
X3.0028Y-1.285
X3.1457Y-1.252
X3.1909Y-1.1386
X3.3465Y-1.9528
X3.3484Y-1.1644
X3.5276Y-1.9567
X3.5778Y-1.1841
X3.7362Y-0.8307
X4.8425Y-2.7835
X5.1142Y-2.8543
X5.2008Y-3.6417
X5.437Y-4.3701
X5.4409Y-3.622
X5.626Y-4.4016
X6.2343Y-5.5876
X6.2402Y-5.8681
X6.4075Y-5.8248
X6.4504Y-5.4433
X6.4535Y-5.1358
X6.4791Y-5.4087
X6.4799Y-5.1921
X6.4972Y-5.3366
X6.5217Y-5.4764
X6.5669Y-5.4705
X6.5749Y-5.2871
X6.5862Y-5.4193
X6.6024Y-4.685
X6.6319Y-5.3713
X6.6626Y-5.3421
X6.7087Y-4.6299
X6.7228Y-5.6717
X6.7609Y-5.1385
X6.8039Y-5.0091
X6.812Y-5.6949
X6.8455Y-5.7904
X6.8494Y-5.1024
X6.8622Y-5.4449
X6.9075Y-5.9341
X6.9104Y-5.3514
X6.9748Y-5.1268
X6.9843Y-5.9528
X6.9897Y-5.7236
X7.0472Y-5.0787
X7.065Y-5.126
X7.1268Y-5.3122
X7.1545Y-5.7087
X7.2035Y-5.4862
X7.211Y-5.9854
X7.2406Y-5.9594
X7.2638Y-5.4803
X7.275Y-5.9404
X7.3071Y-5.4803
X7.3071Y-5.9154
X7.3382Y-5.5413
X7.372Y-5.5803
X7.3996Y-5.6209
X7.4091Y-5.3855
X7.4268Y-5.6606
X7.4614Y-5.6185
X7.7575Y-5.4173
X7.7874Y-5.1811
X9.2996Y-5.3886
X9.3398Y-5.3709
X14.2126Y-2.0531
X14.313Y-2.0866
X14.4524Y-2.1252
X14.485Y-5.1
X14.5012Y-5.1524
T3
X6.2447Y-5.9331
X6.3447Y-5.9331
X6.4447Y-5.9331
X6.5447Y-5.9331
X6.6447Y-5.9331
X14.2461Y-1.4094
X14.2461Y-1.9803
X14.3445Y-1.9803
X14.4429Y-1.4094
X14.4429Y-1.9803
T4
X14.1437Y-1.6972
X14.5445Y-1.6976
T5
X2.9445Y-1.5949
X2.9445Y-2.5324
X3.0382Y-5.5324
X3.132Y-3.2824
X3.1945Y-1.4949
X3.1945Y-2.4324
X3.228Y-4.0324
X3.2882Y-5.4324
X3.382Y-3.1824
X3.4132Y-4.7824
X3.478Y-3.9324
X3.6632Y-4.6824
X3.6945Y-1.5949
X3.6945Y-2.5324
X3.9445Y-1.4949
X3.9445Y-2.4324
X3.9757Y-5.5324
X4.0695Y-3.2824
X4.2257Y-5.4324
X4.257Y-4.0324
X4.3195Y-3.1824
X4.4445Y-1.5949
X4.4445Y-2.5324
X4.507Y-3.9324
X4.632Y-4.7824
X4.6945Y-1.4949
X4.6945Y-2.4324
X4.8195Y-3.2824
X4.882Y-4.6824
X4.9132Y-5.5324
X5.007Y-4.0324
X5.0695Y-3.1824
X5.1632Y-5.4324
X5.1945Y-1.5949
X5.1945Y-2.5324
X5.257Y-3.9324
X5.382Y-4.7824
X5.4445Y-1.4949
X5.4445Y-2.4324
X5.5695Y-3.2824
X5.632Y-4.6824
X5.757Y-4.0324
X5.8195Y-3.1824
X5.9445Y-1.5949
X5.9445Y-2.5324
X6.007Y-3.9324
X6.132Y-4.7824
X6.1945Y-1.4949
X6.1945Y-2.4324
X6.3195Y-3.2824
X6.382Y-4.6824
X6.507Y-4.0324
X6.5695Y-3.1824
X6.6945Y-1.5949
X6.6945Y-2.5324
X6.757Y-3.9324
X6.882Y-4.7824
X6.9445Y-1.4949
X6.9445Y-2.4324
X7.0695Y-3.2824
X7.132Y-4.6824
X7.257Y-4.0324
X7.3195Y-3.1824
X7.4445Y-1.5949
X7.4445Y-2.5324
X7.507Y-3.9324
X7.632Y-4.7824
X7.6945Y-1.4949
X7.6945Y-2.4324
X7.7257Y-5.5324
X7.8195Y-3.2824
X7.882Y-4.6824
X7.9757Y-5.4324
X8.007Y-4.0324
X8.0695Y-3.1824
X8.1945Y-1.5949
X8.1945Y-2.5324
X8.257Y-3.9324
X8.382Y-4.7824
X8.4445Y-1.4949
X8.4445Y-2.4324
X8.5695Y-3.2824
X8.632Y-4.6824
X8.757Y-4.0324
X8.8195Y-3.1824
X8.9445Y-1.5949
X8.9445Y-2.5324
X9.007Y-3.9324
X9.132Y-4.7824
X9.1945Y-1.4949
X9.1945Y-2.4324
X9.3195Y-3.2824
X9.382Y-4.6824
X9.507Y-4.0324
X9.5695Y-3.1824
X9.6945Y-1.5949
X9.6945Y-2.5324
X9.757Y-3.9324
X9.882Y-4.7824
X9.9445Y-1.4949
X9.9445Y-2.4324
X10.0695Y-3.2824
X10.132Y-4.6824
X10.257Y-4.0324
X10.3195Y-3.1824
X10.4445Y-1.5949
X10.4445Y-2.5324
X10.4445Y-5.5324
X10.507Y-3.9324
X10.632Y-4.7824
X10.6945Y-1.4949
X10.6945Y-2.4324
X10.6945Y-5.4324
X10.8195Y-3.2824
X10.882Y-4.6824
X11.007Y-4.0324
X11.0695Y-3.1824
X11.1945Y-1.5949
X11.1945Y-2.5324
X11.1945Y-5.5324
X11.257Y-3.9324
X11.382Y-4.7824
X11.4445Y-1.4949
X11.4445Y-2.4324
X11.4445Y-5.4324
X11.5695Y-3.2824
X11.632Y-4.6824
X11.757Y-4.0324
X11.8195Y-3.1824
X11.9445Y-1.5949
X11.9445Y-2.5324
X11.9445Y-5.5324
X12.007Y-3.9324
X12.1945Y-1.4949
X12.1945Y-2.4324
X12.1945Y-5.4324
X12.3195Y-3.2824
X12.4132Y-4.7824
X12.5695Y-3.1824
X12.6632Y-4.6824
X12.6945Y-1.5949
X12.6945Y-5.5324
X12.9445Y-1.4949
X12.9445Y-5.4324
X12.9757Y-4.0324
X13.0695Y-2.5324
X13.2257Y-3.9324
X13.257Y-3.2824
X13.3195Y-2.4324
X13.4445Y-1.5949
X13.4445Y-4.7824
X13.4445Y-5.5324
X13.507Y-3.1824
X13.6945Y-1.4949
X13.6945Y-4.6824
X13.6945Y-5.4324
X14.1945Y-1.5949
X14.1945Y-2.5324
X14.1945Y-3.2824
X14.1945Y-4.0324
X14.1945Y-4.7824
X14.1945Y-5.5324
X14.4445Y-1.4949
X14.4445Y-2.4324
X14.4445Y-3.1824
X14.4445Y-3.9324
X14.4445Y-4.6824
X14.4445Y-5.4324
T6
X3.0945Y-5.1574
X4.032Y-5.1574
X5.907Y-5.9074
X9.8445Y-5.9074
X12.657Y-4.4074
X12.7507Y-2.9074
X13.5945Y-4.4074
X13.6882Y-2.9074
T2
G00X3.2984Y-0.8283
M15
G01X3.2984Y-0.852
M16
G05
G00X3.2984Y-0.9831
M15
G01X3.2984Y-1.0264
M16
G05
G00X3.6386Y-0.8283
M15
G01X3.6386Y-0.852
M16
G05
G00X3.6386Y-0.9831
M15
G01X3.6386Y-1.0264
M16
G05
T0
M30
